<svg xmlns="http://www.w3.org/2000/svg" xmlns:xlink="http://www.w3.org/1999/xlink" version="1.1" x="0px" y="0px" viewBox="0 0 288 360" enable-background="new 0 0 288 288" xml:space="preserve"><g><circle fill="#000000" cx="133.7" cy="46.8" r="1.8"/><circle fill="#000000" cx="155.1" cy="46.8" r="1.8"/><path fill="#000000" d="M176.8,38.1h-1.6c0-1.2,0-2.3,0-3.2c0-0.4-1.4-0.4-1.4,0c0,0.7,0,1.9,0,3.2h-16.3v-7.3   c0-0.8-0.6-1.4-1.4-1.4h-23.6c-0.8,0-1.4,0.6-1.4,1.4v7.3h-19.2c-0.4,0-0.8,0.1-0.8,0.2V41v3.5v20.9c0,0.6,0.5,1.1,1.1,1.1h31.8   h0.6h31.8c0.6,0,1.1-0.5,1.1-1.1V44.5V41v-2.7C177.6,38.2,177.2,38.1,176.8,38.1z M132.7,30.9H156v7.2h-23.4V30.9z M120.1,40.6   c0,0,0.3-0.1,0.6-0.1H168c0.3,0,0.6,0,0.6,0.1v1.6c0,0-0.4,0.1-0.8,0.1h-23.2h-0.4H121c-0.5,0-0.8,0-0.8-0.1V40.6z M123.2,63.4   c-5.1,0-9.2-4.1-9.2-9.2c0-5.1,4.1-9.2,9.2-9.2c5.1,0,9.2,4.1,9.2,9.2C132.4,59.3,128.3,63.4,123.2,63.4z M131.3,46.8   c0-1.4,1.1-2.5,2.5-2.5c1.4,0,2.5,1.1,2.5,2.5c0,1.4-1.1,2.5-2.5,2.5C132.4,49.2,131.3,48.1,131.3,46.8z M153.3,56.4   c0,0-0.1,0-0.3,0h-8.5h-0.2h-8.5c-0.2,0-0.3,0-0.3,0v-0.6c0,0,0.1,0,0.2,0H153c0.1,0,0.2,0,0.2,0V56.4z M153.3,54.2   c0,0-0.1,0-0.3,0h-8.5h-0.2h-8.5c-0.2,0-0.3,0-0.3,0v-0.6c0,0,0.1,0,0.2,0H153c0.1,0,0.2,0,0.2,0V54.2z M153.3,52.1   c0,0-0.1,0-0.3,0h-8.5h-0.2h-8.5c-0.2,0-0.3,0-0.3,0v-0.6c0,0,0.1,0,0.2,0H153c0.1,0,0.2,0,0.2,0V52.1z M152.7,46.8   c0-1.4,1.1-2.5,2.5-2.5c1.4,0,2.5,1.1,2.5,2.5c0,1.4-1.1,2.5-2.5,2.5C153.8,49.2,152.7,48.1,152.7,46.8z M165.5,63.4   c-5.1,0-9.2-4.1-9.2-9.2c0-5.1,4.1-9.2,9.2-9.2s9.2,4.1,9.2,9.2C174.7,59.3,170.6,63.4,165.5,63.4z M128,54.2   c0,2.7-2.2,4.9-4.9,4.9s-4.9-2.2-4.9-4.9c0-2.7,2.2-4.9,4.9-4.9S128,51.6,128,54.2z M123.2,46c-4.6,0-8.3,3.7-8.3,8.3   c0,4.6,3.7,8.3,8.3,8.3c4.6,0,8.3-3.7,8.3-8.3C131.4,49.7,127.7,46,123.2,46z M123.2,61c-3.7,0-6.7-3-6.7-6.7s3-6.7,6.7-6.7   s6.7,3,6.7,6.7S126.9,61,123.2,61z M165.5,46c-4.6,0-8.3,3.7-8.3,8.3c0,4.6,3.7,8.3,8.3,8.3c4.6,0,8.3-3.7,8.3-8.3   C173.8,49.7,170.1,46,165.5,46z M165.5,61c-3.7,0-6.7-3-6.7-6.7s3-6.7,6.7-6.7s6.7,3,6.7,6.7S169.2,61,165.5,61z M170.4,54.2   c0,2.7-2.2,4.9-4.9,4.9s-4.9-2.2-4.9-4.9c0-2.7,2.2-4.9,4.9-4.9S170.4,51.6,170.4,54.2z"/></g><path fill="#000000" d="M130.2,105.7c0-7.6,6.1-13.7,13.7-13.7c7.6,0,13.7,6.1,13.7,13.7c0,7.6-6.1,13.7-13.7,13.7  C136.4,119.4,130.2,113.2,130.2,105.7z M180,75.4l0-0.7c0.1-2.6-2-4.2-4.3-4.6c-0.4-0.1-0.9-0.1-1.3-0.1c-2.5,0-5,1.4-5.1,4.2  l-0.5,11l-1,20.6c0,0-0.3,0.9-1,2.3l-12.6,12.6c-0.8,0.5-1.6,0.9-2.4,1.4l-14.9,0c-0.9-0.5-1.7-0.9-2.5-1.4l-12.6-12.6  c-0.8-1.4-1-2.3-1-2.3l-1-20.6l-0.5-11c-0.1-2.8-2.6-4.2-5.1-4.2c-0.4,0-0.9,0-1.3,0.1c-2.4,0.4-4.4,2-4.3,4.6l0,0.7  c0,0.2,0,0.5,0,0.8l0.7,32.8c1,8.5,12.1,15.8,17.4,26l0.5,4.4v1.7l0,0l0,111.2c0,4.2,3.4,7.7,7.7,7.7c0.3,0,0.6,0,0.9-0.1  c3.9-0.4,7-3.6,7-7.6l0-64.5h3.2l0,64.5c0,4.2,3.4,7.7,7.7,7.7c0.3,0,0.6,0,0.9-0.1c3.9-0.4,7-3.6,7-7.6l0-92.8h-0.1v-19.1l0.7-5.3  c5.3-10.2,16.4-17.5,17.4-26l0.7-32.8C180.1,75.9,180.1,75.7,180,75.4z"/><circle fill="none" cx="123.2" cy="54.2" r="6.7"/><path fill="none" d="M123.2,45c-5.1,0-9.2,4.1-9.2,9.2s4.1,9.2,9.2,9.2s9.2-4.1,9.2-9.2S128.3,45,123.2,45z M123.2,62.5  c-4.6,0-8.3-3.7-8.3-8.3c0-4.6,3.7-8.3,8.3-8.3c4.6,0,8.3,3.7,8.3,8.3C131.4,58.8,127.7,62.5,123.2,62.5z"/><circle fill="none" cx="165.5" cy="54.2" r="6.7"/><path fill="none" d="M156.3,54.2c0,5.1,4.1,9.2,9.2,9.2c5.1,0,9.2-4.1,9.2-9.2s-4.1-9.2-9.2-9.2C160.4,45,156.3,49.2,156.3,54.2z   M157.3,54.2c0-4.6,3.7-8.3,8.3-8.3c4.6,0,8.3,3.7,8.3,8.3c0,4.6-3.7,8.3-8.3,8.3C161,62.5,157.3,58.8,157.3,54.2z"/><text x="0" y="303" fill="#000000" font-size="5px" font-weight="bold" font-family="'Helvetica Neue', Helvetica, Arial-Unicode, Arial, Sans-serif">Created by Gina Rafaella Furnari</text><text x="0" y="308" fill="#000000" font-size="5px" font-weight="bold" font-family="'Helvetica Neue', Helvetica, Arial-Unicode, Arial, Sans-serif">from the Noun Project</text></svg>