<svg xmlns="http://www.w3.org/2000/svg" xmlns:xlink="http://www.w3.org/1999/xlink" version="1.1" x="0px" y="0px" viewBox="0 0 340.36 325.21500000000003" style="enable-background:new 0 0 340.36 260.172;" xml:space="preserve"><g><path d="M127.354,78.666c2.914,0,5.649,1.261,7.535,3.421l58.357-35.7l1.913,3.127l-58.413,35.734   c1.536,4.219,0.079,9.106-3.814,11.719c-10.365,6.979-21.113,11.463-31.572,13.236V148h239V0h-239v89.814   c6.596-1.594,13.351-4.718,20.43-9.451C123.441,79.253,125.367,78.666,127.354,78.666z"/><ellipse transform="matrix(0.2268 -0.9739 0.9739 0.2268 -19.6397 88.2385)" cx="45.753" cy="56.488" rx="22.495" ry="22.495"/><path d="M14.808,137.188c1.091,0.481,2.243,0.9,3.428,1.289c0.652,0.214,1.319,0.415,2.001,0.6   c0.182,0.049,0.365,0.097,0.548,0.145c2.883,0.744,6.022,1.254,9.467,1.516c1.871,0.142,3.822,0.218,5.872,0.22   c2.063,0,4.221-0.071,6.482-0.22c0.731-0.048,1.429-0.201,2.09-0.429c3.323-1.147,5.61-4.399,5.371-8.075   c-0.289-4.411-4.098-7.75-8.506-7.461c-1.938,0.126-3.75,0.186-5.436,0.186c-1.182,0.003-2.301-0.026-3.357-0.081   c-6.08-0.319-10.112-1.532-12.53-2.829c-0.512-0.274-0.961-0.553-1.331-0.827c-0.25-0.182-0.468-0.359-0.67-0.534   c-0.806-0.698-1.273-1.353-1.608-2.012c-0.406-0.83-0.622-1.744-0.625-2.9c-0.071-2.684,1.554-6.693,4.208-9.601   c0.009-0.01,0.018-0.018,0.027-0.028v13.673l0.944,0.507c1.638,0.879,5.243,2.282,11.894,2.605l2.792-17.614l26.996,4.279   l-3.354,21.156l-3.849,24.277l-6.061-0.961l-4.636-0.735l-16.299-2.583l1.267-7.991c-3.45-0.273-6.617-0.787-9.571-1.546   c-0.041-0.011-0.083-0.021-0.124-0.031v1.689v18.939v86c0,6.829,5.536,12.363,12.363,12.363c6.828,0,12.364-5.534,12.364-12.363   v-78.272H49.6v78.272c0,6.829,5.536,12.363,12.363,12.363c6.828,0,12.364-5.534,12.364-12.363v-86v-18.939v-34.388v-2.11   c4.526,1.504,10.21,2.684,16.929,2.697c0.038,0,0.076,0,0.114,0c3.134,0,6.478-0.283,9.989-0.894   c9.143-1.588,19.461-5.464,30.457-12.866c3.002-2.015,4.2-5.708,3.188-8.995c-0.225-0.73-0.555-1.44-1.003-2.106   c-0.257-0.384-0.548-0.73-0.856-1.055c-2.637-2.774-6.96-3.335-10.245-1.128c-8.153,5.452-15.329,8.396-21.541,9.842   c-3.711,0.864-7.078,1.193-10.104,1.202c-6.396,0-11.36-1.506-14.702-2.962c-1.666-0.729-2.914-1.442-3.694-1.933   c-0.39-0.246-0.662-0.434-0.808-0.541c-0.053-0.038-0.091-0.066-0.111-0.081c-0.013-0.011-0.016-0.013-0.016-0.013l-0.002,0.001   c-0.88-0.699-1.864-1.179-2.886-1.454c-0.767-0.255-1.585-0.398-2.438-0.398h-5.462H27.964c-0.554,0-1.092,0.061-1.613,0.171   c-3.474,0.238-6.696,1.32-9.557,2.852c-4.868,2.635-8.854,6.558-11.836,11.173c-2.946,4.622-4.935,10.021-4.959,15.89   c-0.004,3.308,0.685,6.775,2.29,10.005C4.68,130.661,9.112,134.699,14.808,137.188z"/></g><text x="0" y="275.172" fill="#000000" font-size="5px" font-weight="bold" font-family="'Helvetica Neue', Helvetica, Arial-Unicode, Arial, Sans-serif">Created by Gan Khoon Lay</text><text x="0" y="280.172" fill="#000000" font-size="5px" font-weight="bold" font-family="'Helvetica Neue', Helvetica, Arial-Unicode, Arial, Sans-serif">from the Noun Project</text></svg>