<svg xmlns="http://www.w3.org/2000/svg" xmlns:xlink="http://www.w3.org/1999/xlink" version="1.1" x="0px" y="0px" viewBox="0 0 264.133 281.35875" style="enable-background:new 0 0 264.133 225.087;" xml:space="preserve"><g><path d="M41.975,203.051h60.078c1.837-4.397,5.372-7.911,9.78-9.729v-88.938H13.167v92.382c3.211-2.969,7.488-4.8,12.195-4.8   C32.838,191.966,39.259,196.549,41.975,203.051z"/><path d="M239.42,6.33c-8.929-8.64-23.17-8.406-31.811,0.52c-8.64,8.925-8.407,23.169,0.522,31.808   c8.928,8.64,23.168,8.406,31.809-0.521c3.861-3.991,5.937-9.044,6.269-14.184c-2.962-0.834-6.118-1.657-9.388-2.375   c-8.194-1.801-15.477-3.916-20.562-5.859c4.925,1.138,11.166,2.198,17.995,2.986c8.539,0.986,16.284,1.35,21.749,1.134   c4.924-0.195,7.999-0.859,8.127-1.966c0.206-1.798-7.43-4.234-18.368-6.116c-0.802-0.138-1.621-0.273-2.456-0.404   C242.274,9.547,240.989,7.849,239.42,6.33z"/><path d="M215.73,73.592c0.204-0.92,0.406-1.63,0.541-2.073c0.067-0.22,0.12-0.375,0.149-0.457l0.004-0.016   c1.563-4.133-0.518-8.75-4.649-10.313c-4.133-1.564-8.751,0.517-10.313,4.648c-0.208,0.583-2.542,6.788-2.561,15.805   c-0.01,7.245,1.6,16.48,7.449,25.351c5.827,8.883,15.752,17.001,30.896,22.524c0.909,0.333,1.839,0.492,2.754,0.492   c3.26,0,6.322-2.008,7.51-5.247c1.522-4.15-0.608-8.745-4.756-10.267c-12.641-4.665-19.265-10.611-23.044-16.305   c-3.754-5.704-4.798-11.556-4.809-16.548C214.9,78.114,215.32,75.433,215.73,73.592z"/><path d="M100.938,206.966H43.09c0.165,0.978,0.271,1.976,0.271,3c0,1.024-0.106,2.022-0.271,3h57.848   c-0.165-0.978-0.271-1.976-0.271-3C100.667,208.942,100.773,207.944,100.938,206.966z"/><path d="M148.207,116.485c2.948-0.327,5.6-2.269,6.662-5.249c7.294-20.323,19.156-31.171,30.08-37.427   c-6.236,14.3-8.608,26.245-9.126,44.716c0.368,7.647,2.893,12.424,6.404,15.468c0.428,1,0.988,1.936,1.658,2.793   c1.459,4.248,3.113,10.727,3.079,18.158c-0.01,6.806-1.281,14.371-5.195,22.385c-3.934,8.006-10.557,16.615-22.056,25.258   c-5.522,4.141-6.641,11.977-2.5,17.501c2.457,3.273,6.211,4.999,10.011,5c2.61,0,5.242-0.814,7.491-2.5   c14.253-10.674,23.753-22.484,29.509-34.267c5.184-10.574,7.302-21,7.675-30.258c8.866,10.803,18.58,28.307,24.396,56.999   c1.197,5.931,6.412,10.028,12.238,10.028c0.82,0,1.653-0.081,2.488-0.25c6.768-1.365,11.147-7.957,9.78-14.725   c-7.708-38.369-22.622-61.799-36.362-75.396c-4.828-4.796-9.462-8.352-13.512-10.971c0.126-2.546,0.39-5.12,0.78-7.705   c-2.712-2.612-5.072-5.418-7.031-8.404c-6.443-9.772-7.785-19.779-7.775-26.451c0.017-8.265,1.867-14.246,2.663-16.436   c1.489-3.939,5.247-6.535,9.378-6.535c1.209,0,2.4,0.219,3.54,0.649c5.154,1.95,7.762,7.732,5.812,12.891   c-0.01,0.039-0.055,0.167-0.11,0.351c-0.186,0.607-0.354,1.254-0.498,1.918c-0.359,1.609-0.786,4.151-0.784,7.162   c0.007,3.288,0.519,6.387,1.494,9.284c1.753-5.155,3.541-9.98,5.032-14.232c4.269-9.438,2.263-21.766-5.881-25.096   c-2.396-0.98-5.208-1.423-8.162-1.216c-0.355-0.031-0.714-0.048-1.08-0.032c-0.715,0.047-12.748,0.626-27.383,7.92   c-14.609,7.23-31.788,21.667-41.126,48.055c-1.188,3.339-0.021,6.941,2.634,9.001l-21.823,77.206   c2.047,0.22,3.984,0.799,5.769,1.65L148.207,116.485z"/><path d="M2.999,212.966h4.634c-0.165-0.978-0.271-1.976-0.271-3c0-1.024,0.106-2.021,0.271-3H2.999   c-1.657,0-2.999,1.342-2.999,3.001C0,211.624,1.342,212.966,2.999,212.966z"/><path d="M10.362,209.966c0,8.284,6.715,15,15,15c8.283,0,15-6.716,15-15c0-8.284-6.717-15-15-15   C17.077,194.966,10.362,201.682,10.362,209.966z M32.363,209.967c0,3.86-3.14,7.001-7.001,7.001c-3.861,0-7.001-3.141-7.001-7.001   c0-3.86,3.14-7.001,7.001-7.001C29.224,202.966,32.363,206.107,32.363,209.967z"/><path d="M103.667,209.966c0,8.284,6.717,15,15,15c8.285,0,15-6.716,15-15c0-8.284-6.715-15-15-15   C110.384,194.966,103.667,201.682,103.667,209.966z M118.667,202.966c3.861,0,7.002,3.141,7.002,7.001   c0,3.86-3.141,7.001-7.002,7.001c-3.859,0-7-3.141-7-7.001C111.667,206.107,114.808,202.966,118.667,202.966z"/></g><text x="0" y="240.087" fill="#000000" font-size="5px" font-weight="bold" font-family="'Helvetica Neue', Helvetica, Arial-Unicode, Arial, Sans-serif">Created by Gan Khoon Lay</text><text x="0" y="245.087" fill="#000000" font-size="5px" font-weight="bold" font-family="'Helvetica Neue', Helvetica, Arial-Unicode, Arial, Sans-serif">from the Noun Project</text></svg>