<svg xmlns="http://www.w3.org/2000/svg" xmlns:xlink="http://www.w3.org/1999/xlink" version="1.1" x="0px" y="0px" viewBox="0 0 64 80" style="enable-background:new 0 0 64 64;" xml:space="preserve"><path d="M7,55h18.674l-1.429,5H19v2h6h14h6v-2h-5.246l-1.429-5H57c2.757,0,5-2.243,5-5V7c0-2.757-2.243-5-5-5H7C4.243,2,2,4.243,2,7  v43C2,52.757,4.243,55,7,55z M37.674,60H26.326l1.429-5h8.491L37.674,60z M57,53H37H27H7c-1.654,0-3-1.346-3-3v-1h56v1  C60,51.654,58.654,53,57,53z M7,4h50c1.654,0,3,1.346,3,3v40H4V7C4,5.346,5.346,4,7,4z"/><path d="M26.684,23.949C26.788,23.983,26.895,24,27,24c0.309,0,0.607-0.144,0.8-0.4l9.589-12.786  c0.332-0.442,0.242-1.068-0.199-1.399C34.216,7.181,30.693,6,27,6c-0.552,0-1,0.448-1,1v16C26,23.431,26.275,23.812,26.684,23.949z   M28,8.033c2.562,0.169,5.008,0.99,7.17,2.406L28,20V8.033z"/><path d="M29.018,25.584C29.209,25.851,29.514,26,29.829,26c0.105,0,0.212-0.017,0.316-0.051l15.171-5.057  c0.524-0.175,0.807-0.741,0.632-1.265c-1.093-3.279-3.144-6.119-5.93-8.212c-0.212-0.159-0.478-0.225-0.742-0.191  c-0.263,0.038-0.5,0.178-0.659,0.39L29.029,24.4C28.766,24.75,28.762,25.23,29.018,25.584z M39.599,13.641  c1.809,1.553,3.208,3.49,4.105,5.68l-11.154,3.718L39.599,13.641z"/><path d="M10.514,35.99c0.219,0,0.44-0.072,0.624-0.219l12.487-9.99C23.862,25.591,24,25.304,24,25V9c0-0.552-0.448-1-1-1  C13.626,8,6,15.626,6,25c0,3.896,1.291,7.566,3.733,10.615C9.93,35.861,10.221,35.99,10.514,35.99z M22,10.033V24.52l-11.306,9.045  C8.928,31.043,8,28.102,8,25C8,17.065,14.194,10.55,22,10.033z"/><path d="M11.205,37.88c-0.029,0.264,0.048,0.528,0.214,0.735C14.669,42.673,19.505,45,24.687,45c4.541,0,8.81-1.769,12.021-4.979  c0.391-0.391,0.391-1.023,0-1.414L25.394,27.293c-0.359-0.361-0.935-0.394-1.332-0.074l-12.487,9.99  C11.367,37.375,11.234,37.616,11.205,37.88z M24.612,29.34l9.951,9.951C31.828,41.69,28.358,43,24.687,43  c-4.237,0-8.212-1.765-11.056-4.875L24.612,29.34z"/><path d="M30.684,28.108c-0.329,0.11-0.577,0.382-0.657,0.719c-0.08,0.337,0.021,0.692,0.266,0.937l11.313,11.313  c0.195,0.195,0.451,0.293,0.707,0.293s0.512-0.098,0.707-0.293C46.231,37.867,48,33.598,48,29.057c0-1.814-0.296-3.622-0.88-5.374  c-0.174-0.524-0.739-0.809-1.265-0.632L30.684,28.108z M42.291,38.934l-9.439-9.439l12.657-4.219C45.835,26.519,46,27.787,46,29.057  C46,32.729,44.69,36.199,42.291,38.934z"/><rect x="48" y="7" width="2" height="2"/><rect x="48" y="11" width="2" height="2"/><rect x="48" y="15" width="2" height="2"/><rect x="48" y="19" width="2" height="2"/><rect x="52" y="7" width="6" height="2"/><rect x="52" y="11" width="6" height="2"/><rect x="52" y="15" width="6" height="2"/><rect x="52" y="19" width="6" height="2"/><rect x="56" y="43" width="2" height="2"/><rect x="52" y="43" width="2" height="2"/><rect x="48" y="43" width="2" height="2"/><text x="0" y="79" fill="#000000" font-size="5px" font-weight="bold" font-family="'Helvetica Neue', Helvetica, Arial-Unicode, Arial, Sans-serif">Created by Becris</text><text x="0" y="84" fill="#000000" font-size="5px" font-weight="bold" font-family="'Helvetica Neue', Helvetica, Arial-Unicode, Arial, Sans-serif">from the Noun Project</text></svg>