<svg xmlns="http://www.w3.org/2000/svg" xmlns:xlink="http://www.w3.org/1999/xlink" version="1.1" x="0px" y="0px" viewBox="0 0 100 125" enable-background="new 0 0 100 100" xml:space="preserve"><g><g><path d="M89.05,30c-1.109,0-1.976,0.899-1.976,2c0,9.559-16.977,17.639-37.087,17.639S12.895,41.559,12.895,32    c0-1.101-0.838-2-1.947-2C9.847,30,9,30.899,9,32v36.039c0,12.13,17.96,21.63,41,21.63s41-9.5,41-21.63V32    C91,30.899,90.15,30,89.05,30z M50.98,72h-0.99C47.8,72,46,70.729,46,68.549V62.6c0-2.2,1.8-3.6,3.99-3.6h0.99    C53.17,59,55,60.399,55,62.6v5.949C55,70.729,53.17,72,50.98,72z M64.12,59.709c-0.03-2.25,1.54-4.29,3.54-4.529l0.89-0.101    c1.99-0.25,3.62,1.37,3.67,3.601l0.101,6.1c0.029,2.26-1.551,4.28-3.53,4.52l-0.9,0.11c-1.989,0.26-3.63-1.36-3.67-3.6    L64.12,59.709z M80,58.68v-4.53c0-2.54,1.265-5,2.685-5.49l0.698-0.22c1.399-0.49,2.578,1.189,2.568,3.729l0.004,4.54    c0,2.551-1.132,5.011-2.542,5.49l-0.752,0.21C81.241,62.899,80,61.229,80,58.68z M36.84,59.709l-0.09,6.101    c-0.04,2.239-1.68,3.859-3.67,3.6l-0.9-0.11c-1.989-0.239-3.569-2.26-3.529-4.52l0.1-6.1c0.04-2.23,1.67-3.851,3.66-3.601    l0.899,0.101C35.3,55.419,36.89,57.459,36.84,59.709z M14,52.169c0-2.54,1.15-4.22,2.561-3.729l0.75,0.22    c1.42,0.49,2.689,2.95,2.689,5.49v4.53c0,2.55-1.255,4.22-2.654,3.729l-0.708-0.21C15.228,61.72,14,59.26,14,56.709V52.169z"/></g><g><path d="M10.904,33.972c-1.104,0-2-0.896-2-2c0-12.12,18.052-21.614,41.096-21.614c14,0,26.865,3.612,34.417,9.663    c0.861,0.69,1,1.949,0.31,2.811c-0.69,0.864-1.95,1.001-2.812,0.31C75.153,17.724,62.924,14.357,50,14.357    c-20.108,0-37.096,8.066-37.096,17.614C12.904,33.076,12.009,33.972,10.904,33.972z"/></g><g><path d="M50,38.449c-12.284,0-23.107,2.768-30.413,7.203c1.029,1.091,1.995,2.103,3.059,2.875    c6.688-3.693,16.556-6.078,27.354-6.078c10.823,0,20.711,2.396,27.399,6.103c1.433-0.668,2.963-1.278,4.084-2.221    C74.189,41.5,62.899,38.449,50,38.449z"/></g><g><path d="M50.36,32.484h-0.819c-2.9,0-5.26-2.363-5.26-5.269V22.33c0-2.9,2.359-5.26,5.26-5.26h0.819c2.9,0,5.26,2.359,5.26,5.26    v4.886C55.62,30.121,53.261,32.484,50.36,32.484z M49.541,21.07c-0.694,0-1.26,0.565-1.26,1.26v4.886    c0,0.7,0.565,1.269,1.26,1.269h0.819c0.694,0,1.26-0.569,1.26-1.269V22.33c0-0.695-0.565-1.26-1.26-1.26H49.541z"/></g><g><path d="M34.769,35.421c-2.576,0-4.633-2.176-4.683-4.954l-0.073-5.028c-0.063-2.863,1.978-5.384,4.646-5.724l0.727-0.093    c2.885-0.373,5.225,1.93,5.277,4.917l0.082,5.016c0.052,2.883-1.993,5.401-4.655,5.728l-0.717,0.099    C35.153,35.41,34.959,35.421,34.769,35.421z M35.977,23.584l-0.81,0.099c-0.562,0.072-1.174,0.807-1.154,1.683l0.073,5.037    c0.011,0.62,0.346,1.064,0.767,1.014l0.721-0.1c0.582-0.072,1.188-0.808,1.172-1.692l-0.082-5.017    C36.653,24.025,36.358,23.584,35.977,23.584z"/></g><g><path d="M77.432,40.915c-0.347,0-0.694-0.058-1.033-0.173l-0.548-0.192c-2.251-0.782-3.433-3.81-3.433-6.396l-0.017-3.714    c0-3.036,1.523-5.149,3.705-5.149c0.351,0,0.701,0.06,1.042,0.177l0.55,0.194c2.249,0.766,3.438,3.796,3.438,6.39v3.724    C81.136,38.802,79.612,40.915,77.432,40.915z M76.48,29.611c-0.045,0.21-0.079,0.482-0.079,0.82l0.017,3.714    c0,1.143,0.368,2.028,0.643,2.439c0.043-0.208,0.075-0.477,0.075-0.809v-3.724C77.136,30.905,76.757,30.015,76.48,29.611z"/></g><g><path d="M21.684,40.915L21.684,40.915c-2.181,0-3.704-2.113-3.704-5.139v-3.724c0.011-2.602,1.203-5.629,3.461-6.398l0.509-0.181    c0.358-0.124,0.709-0.183,1.06-0.183c2.182,0,3.705,2.114,3.705,5.141l-0.017,3.731c0,2.577-1.182,5.604-3.44,6.389l-0.517,0.182    C22.378,40.857,22.03,40.915,21.684,40.915z M22.636,29.613c-0.274,0.406-0.651,1.298-0.656,2.448v3.715    c0,0.349,0.036,0.628,0.082,0.841c0.234-0.365,0.636-1.276,0.636-2.463l0.017-3.731C22.714,30.091,22.681,29.822,22.636,29.613z"/></g><g><path d="M65.141,35.421C65.14,35.421,65.14,35.421,65.141,35.421c-0.191,0-0.385-0.012-0.581-0.037l-0.763-0.106    c-2.634-0.321-4.683-2.838-4.633-5.726l0.091-5.015c0.04-2.982,2.41-5.284,5.26-4.917l0.741,0.093    c2.646,0.339,4.688,2.853,4.649,5.722l-0.081,5.027C69.762,33.249,67.705,35.421,65.141,35.421z M64.002,23.59    c-0.455,0-0.739,0.435-0.747,1.011l-0.091,5.023c-0.016,0.883,0.595,1.621,1.15,1.688l0.826,0.109    c0.377,0,0.671-0.445,0.685-1.034l0.08-5.009c0.012-0.881-0.6-1.624-1.153-1.695l-0.741-0.093    C64.008,23.59,64.005,23.59,64.002,23.59z"/></g></g><text x="0" y="115" fill="#000000" font-size="5px" font-weight="bold" font-family="'Helvetica Neue', Helvetica, Arial-Unicode, Arial, Sans-serif">Created by Parallel Digital Studio</text><text x="0" y="120" fill="#000000" font-size="5px" font-weight="bold" font-family="'Helvetica Neue', Helvetica, Arial-Unicode, Arial, Sans-serif">from the Noun Project</text></svg>